<?xml version="1.0" encoding="utf-8"?>
<!-- Generator: Adobe Illustrator 24.0.0, SVG Export Plug-In . SVG Version: 6.00 Build 0)  -->
<svg version="1.1" id="Layer_1" xmlns="http://www.w3.org/2000/svg" xmlns:xlink="http://www.w3.org/1999/xlink" x="0px" y="0px"
	 viewBox="0 0 1000 1000" style="enable-background:new 0 0 1000 1000;" xml:space="preserve">
<style type="text/css">
	.st0{fill:#FFFFFF;}
	.st1{fill:url(#SVGID_1_);}
	.st2{opacity:0.7;fill:#141351;}
	.st3{fill:url(#SVGID_2_);}
	.st4{fill:url(#SVGID_3_);}
	.st5{fill:url(#SVGID_4_);}
</style>
<g>
	<rect class="st0" width="1000" height="1000"/>
</g>
<linearGradient id="SVGID_1_" gradientUnits="userSpaceOnUse" x1="330.338" y1="197.7814" x2="672.3327" y2="790.1336">
	<stop  offset="0" style="stop-color:#00003D"/>
	<stop  offset="1" style="stop-color:#2B39AF"/>
</linearGradient>
<ellipse class="st1" cx="501.34" cy="493.96" rx="341.75" ry="342"/>
<path class="st2" d="M473.84,523.46c0,0,63-45,126,36c0,0,28,36,9,90c0,0-18,52-99,62c0,0-45,10-118-18c0,0-81-27-108-117
	c0,0-18-63-27-108c0,0,26-90,126-153c0,0,37-27,127-18c0,0,36,1,81,28c0,0-107,18-153,108c0,0,81-36,153-18c0,0,27,9,54,27
	c0,0,45,27,63,81C707.84,523.46,591.84,442.46,473.84,523.46z"/>
<linearGradient id="SVGID_2_" gradientUnits="userSpaceOnUse" x1="191.9411" y1="642.3181" x2="785.2196" y2="299.7886">
	<stop  offset="0" style="stop-color:#46FFD7"/>
	<stop  offset="0.4091" style="stop-color:#3CB5D9"/>
	<stop  offset="0.6176" style="stop-color:#3790DA"/>
	<stop  offset="0.7353" style="stop-color:#4C67CE"/>
	<stop  offset="1" style="stop-color:#BC70BF"/>
</linearGradient>
<path class="st3" d="M294.89,549.95c3.22-165.32,139.23-296.74,303.78-293.53c86.65,1.69,163.92,40.38,217.21,100.76
	c-51.86-118.83-169.27-202.94-307.39-205.63c-189.12-3.69-345.42,146.63-349.09,335.75c-3.63,186.82,143.03,341.6,328.9,348.89
	C373.23,792.92,292.35,680.38,294.89,549.95z"/>
<linearGradient id="SVGID_3_" gradientUnits="userSpaceOnUse" x1="364.8471" y1="462.9112" x2="829.8469" y2="462.9112">
	<stop  offset="0.0889" style="stop-color:#44F3DB"/>
	<stop  offset="0.5501" style="stop-color:#3790DA"/>
	<stop  offset="0.7972" style="stop-color:#4C67CE"/>
	<stop  offset="1" style="stop-color:#BC70BF"/>
</linearGradient>
<path class="st4" d="M601.91,314.93c-128.38-2.48-234.5,99.59-237.02,227.97c-0.46,23.43,2.58,46.11,8.61,67.56
	c12.43-114.79,110.81-203.25,228.38-201.13c114.97,2.07,207.97,90.04,219.14,201.61c5.34-18.81,8.38-38.6,8.78-59.06
	C832.32,423.49,730.29,317.41,601.91,314.93z"/>
<g>
	<linearGradient id="SVGID_4_" gradientUnits="userSpaceOnUse" x1="458.3866" y1="614.4744" x2="770.5359" y2="614.4744">
		<stop  offset="0.1026" style="stop-color:#44F3DB"/>
		<stop  offset="0.6179" style="stop-color:#3790DA"/>
		<stop  offset="0.7799" style="stop-color:#4C67CE"/>
		<stop  offset="1" style="stop-color:#BC70BF"/>
	</linearGradient>
	<path class="st5" d="M606.36,467c-62.86-1.2-118.32,32.4-147.97,83.08c28.48-30.87,70.47-48.88,117.69-46.07
		c87.92,5.23,160.65,80.63,162.46,168.4c0.7,33.97-9.33,64.81-26.99,89.56c35.24-30.02,57.97-74.4,58.96-124.31
		C772.34,545.18,698.85,468.77,606.36,467z"/>
</g>
</svg>
