<?xml version="1.0" encoding="utf-8"?>
<!-- Generator: Adobe Illustrator 24.0.0, SVG Export Plug-In . SVG Version: 6.00 Build 0)  -->
<svg version="1.1" id="Layer_1" xmlns="http://www.w3.org/2000/svg" xmlns:xlink="http://www.w3.org/1999/xlink" x="0px" y="0px"
	 viewBox="0 0 1000 1000" style="enable-background:new 0 0 1000 1000;" xml:space="preserve">
<style type="text/css">
	.st0{fill:#001555;}
	.st1{fill:#08FEF3;}
	.st2{fill:#940038;}
	.st3{fill:#FF153E;}
</style>
<rect class="st0" width="1000" height="1000"/>
<g>
	<g>
		<g>
			<polygon class="st2" points="177.17,500.66 217.45,540.95 317.05,441.35 309.07,368.76 			"/>
		</g>
		<g>
			<polygon class="st2" points="247.66,571.16 287.95,611.45 331.02,568.37 323.04,495.79 			"/>
		</g>
		<g>
			<polygon class="st3" points="429.4,530.42 423.42,475.98 415.44,403.39 409.45,348.95 455.65,302.75 501.85,256.55 
				540.84,217.55 500.56,177.27 493.87,183.96 447.67,230.16 401.47,276.36 355.27,322.56 363.25,395.15 369.24,449.59 
				377.22,522.17 383.2,576.62 337,622.81 318.16,641.66 341.66,665.16 358.45,681.94 391.18,649.2 437.38,603 			"/>
		</g>
		<g>
			<polygon class="st3" points="535.77,565.05 529.78,510.61 521.8,438.02 515.82,383.58 562.01,337.38 562.02,337.38 
				608.21,291.18 611.34,288.05 607.44,284.15 571.06,247.77 554.03,264.79 554.03,264.79 507.83,310.99 461.64,357.19 
				469.62,429.78 475.6,484.22 483.58,556.81 489.57,611.25 443.37,657.45 397.17,703.64 388.66,712.16 399.27,722.77 
				428.94,752.44 451.35,730.03 497.55,683.83 543.75,637.64 			"/>
		</g>
		<g>
			<polygon class="st2" points="822.83,499.54 782.55,459.26 688.33,553.48 696.31,626.07 			"/>
		</g>
		<g>
			<g>
				<polygon class="st2" points="752.34,429.05 712.05,388.76 674.36,426.45 682.35,499.04 				"/>
			</g>
			<polyline class="st3" points="622.18,418.21 668.38,372.01 681.84,358.55 665.05,341.76 641.55,318.26 614.2,345.62 
				614.2,345.62 568,391.82 575.98,464.41 581.97,518.85 589.95,591.44 595.93,645.88 549.73,692.08 503.53,738.27 458.95,782.45 
				499.23,822.73 503,819.37 557.71,764.66 603.91,718.46 650.11,672.27 642.13,599.68 636.15,545.24 628.17,472.65 622.18,418.21 
							"/>
		</g>
	</g>
</g>
</svg>
